<svg xmlns="http://www.w3.org/2000/svg" xmlns:xlink="http://www.w3.org/1999/xlink" width="256" zoomAndPan="magnify" viewBox="0 0 192 95.999999" height="128" preserveAspectRatio="xMidYMid meet" version="1.2"><defs><linearGradient x1="0" gradientTransform="matrix(0.75,0,0,0.75,0.000001,0.000002)" y1="64" x2="255.999989" gradientUnits="userSpaceOnUse" y2="64" id="c179004af0"><stop style="stop-color:#000000;stop-opacity:1;" offset="0"/><stop style="stop-color:#000000;stop-opacity:1;" offset="0.0078125"/><stop style="stop-color:#010101;stop-opacity:1;" offset="0.015625"/><stop style="stop-color:#020202;stop-opacity:1;" offset="0.0234375"/><stop style="stop-color:#030303;stop-opacity:1;" offset="0.03125"/><stop style="stop-color:#040404;stop-opacity:1;" offset="0.0390625"/><stop style="stop-color:#050505;stop-opacity:1;" offset="0.046875"/><stop style="stop-color:#060606;stop-opacity:1;" offset="0.0546875"/><stop style="stop-color:#070707;stop-opacity:1;" offset="0.0625"/><stop style="stop-color:#080808;stop-opacity:1;" offset="0.0703125"/><stop style="stop-color:#090909;stop-opacity:1;" offset="0.078125"/><stop style="stop-color:#090909;stop-opacity:1;" offset="0.0859375"/><stop style="stop-color:#0a0a0a;stop-opacity:1;" offset="0.09375"/><stop style="stop-color:#0b0b0b;stop-opacity:1;" offset="0.101562"/><stop style="stop-color:#0c0c0c;stop-opacity:1;" offset="0.109375"/><stop style="stop-color:#0d0d0d;stop-opacity:1;" offset="0.117188"/><stop style="stop-color:#0e0e0e;stop-opacity:1;" offset="0.125"/><stop style="stop-color:#0f0f0f;stop-opacity:1;" offset="0.132812"/><stop style="stop-color:#101010;stop-opacity:1;" offset="0.140625"/><stop style="stop-color:#111111;stop-opacity:1;" offset="0.148438"/><stop style="stop-color:#121212;stop-opacity:1;" offset="0.15625"/><stop style="stop-color:#121212;stop-opacity:1;" offset="0.164062"/><stop style="stop-color:#131313;stop-opacity:1;" offset="0.171875"/><stop style="stop-color:#141414;stop-opacity:1;" offset="0.179688"/><stop style="stop-color:#151515;stop-opacity:1;" offset="0.1875"/><stop style="stop-color:#161616;stop-opacity:1;" offset="0.195312"/><stop style="stop-color:#171717;stop-opacity:1;" offset="0.203125"/><stop style="stop-color:#181818;stop-opacity:1;" offset="0.210938"/><stop style="stop-color:#191919;stop-opacity:1;" offset="0.21875"/><stop style="stop-color:#1a1a1a;stop-opacity:1;" offset="0.226562"/><stop style="stop-color:#1b1b1b;stop-opacity:1;" offset="0.234375"/><stop style="stop-color:#1b1b1b;stop-opacity:1;" offset="0.242188"/><stop style="stop-color:#1c1c1c;stop-opacity:1;" offset="0.25"/><stop style="stop-color:#1d1d1d;stop-opacity:1;" offset="0.257812"/><stop style="stop-color:#1e1e1e;stop-opacity:1;" offset="0.265625"/><stop style="stop-color:#1f1f1f;stop-opacity:1;" offset="0.273438"/><stop style="stop-color:#202020;stop-opacity:1;" offset="0.28125"/><stop style="stop-color:#212121;stop-opacity:1;" offset="0.289062"/><stop style="stop-color:#222222;stop-opacity:1;" offset="0.296875"/><stop style="stop-color:#232323;stop-opacity:1;" offset="0.304688"/><stop style="stop-color:#232323;stop-opacity:1;" offset="0.3125"/><stop style="stop-color:#242424;stop-opacity:1;" offset="0.320312"/><stop style="stop-color:#252525;stop-opacity:1;" offset="0.328125"/><stop style="stop-color:#262626;stop-opacity:1;" offset="0.335938"/><stop style="stop-color:#272727;stop-opacity:1;" offset="0.34375"/><stop style="stop-color:#282828;stop-opacity:1;" offset="0.351562"/><stop style="stop-color:#292929;stop-opacity:1;" offset="0.359375"/><stop style="stop-color:#2a2a2a;stop-opacity:1;" offset="0.367188"/><stop style="stop-color:#2b2b2b;stop-opacity:1;" offset="0.375"/><stop style="stop-color:#2c2c2c;stop-opacity:1;" offset="0.382812"/><stop style="stop-color:#2c2c2c;stop-opacity:1;" offset="0.390625"/><stop style="stop-color:#2d2d2d;stop-opacity:1;" offset="0.398438"/><stop style="stop-color:#2e2e2e;stop-opacity:1;" offset="0.40625"/><stop style="stop-color:#2f2f2f;stop-opacity:1;" offset="0.414062"/><stop style="stop-color:#303030;stop-opacity:1;" offset="0.421875"/><stop style="stop-color:#313131;stop-opacity:1;" offset="0.429688"/><stop style="stop-color:#323232;stop-opacity:1;" offset="0.4375"/><stop style="stop-color:#333333;stop-opacity:1;" offset="0.445312"/><stop style="stop-color:#343434;stop-opacity:1;" offset="0.453125"/><stop style="stop-color:#353535;stop-opacity:1;" offset="0.460938"/><stop style="stop-color:#353535;stop-opacity:1;" offset="0.46875"/><stop style="stop-color:#363636;stop-opacity:1;" offset="0.476562"/><stop style="stop-color:#373737;stop-opacity:1;" offset="0.484375"/><stop style="stop-color:#383838;stop-opacity:1;" offset="0.492188"/><stop style="stop-color:#393939;stop-opacity:1;" offset="0.5"/><stop style="stop-color:#3a3a3a;stop-opacity:1;" offset="0.507812"/><stop style="stop-color:#3b3b3b;stop-opacity:1;" offset="0.515625"/><stop style="stop-color:#3c3c3c;stop-opacity:1;" offset="0.523438"/><stop style="stop-color:#3d3d3d;stop-opacity:1;" offset="0.53125"/><stop style="stop-color:#3e3e3e;stop-opacity:1;" offset="0.539062"/><stop style="stop-color:#3e3e3e;stop-opacity:1;" offset="0.546875"/><stop style="stop-color:#3f3f3f;stop-opacity:1;" offset="0.554688"/><stop style="stop-color:#404040;stop-opacity:1;" offset="0.5625"/><stop style="stop-color:#414141;stop-opacity:1;" offset="0.570312"/><stop style="stop-color:#424242;stop-opacity:1;" offset="0.578125"/><stop style="stop-color:#434343;stop-opacity:1;" offset="0.585938"/><stop style="stop-color:#444444;stop-opacity:1;" offset="0.59375"/><stop style="stop-color:#454545;stop-opacity:1;" offset="0.601562"/><stop style="stop-color:#464646;stop-opacity:1;" offset="0.609375"/><stop style="stop-color:#474747;stop-opacity:1;" offset="0.617188"/><stop style="stop-color:#474747;stop-opacity:1;" offset="0.625"/><stop style="stop-color:#484848;stop-opacity:1;" offset="0.632812"/><stop style="stop-color:#494949;stop-opacity:1;" offset="0.640625"/><stop style="stop-color:#4a4a4a;stop-opacity:1;" offset="0.648438"/><stop style="stop-color:#4b4b4b;stop-opacity:1;" offset="0.65625"/><stop style="stop-color:#4c4c4c;stop-opacity:1;" offset="0.664062"/><stop style="stop-color:#4d4d4d;stop-opacity:1;" offset="0.671875"/><stop style="stop-color:#4e4e4e;stop-opacity:1;" offset="0.679688"/><stop style="stop-color:#4f4f4f;stop-opacity:1;" offset="0.6875"/><stop style="stop-color:#505050;stop-opacity:1;" offset="0.695312"/><stop style="stop-color:#505050;stop-opacity:1;" offset="0.703125"/><stop style="stop-color:#515151;stop-opacity:1;" offset="0.710938"/><stop style="stop-color:#525252;stop-opacity:1;" offset="0.71875"/><stop style="stop-color:#535353;stop-opacity:1;" offset="0.726562"/><stop style="stop-color:#545454;stop-opacity:1;" offset="0.734375"/><stop style="stop-color:#555555;stop-opacity:1;" offset="0.742188"/><stop style="stop-color:#565656;stop-opacity:1;" offset="0.75"/><stop style="stop-color:#575757;stop-opacity:1;" offset="0.757812"/><stop style="stop-color:#585858;stop-opacity:1;" offset="0.765625"/><stop style="stop-color:#585858;stop-opacity:1;" offset="0.773438"/><stop style="stop-color:#595959;stop-opacity:1;" offset="0.78125"/><stop style="stop-color:#5a5a5a;stop-opacity:1;" offset="0.789062"/><stop style="stop-color:#5b5b5b;stop-opacity:1;" offset="0.796875"/><stop style="stop-color:#5c5c5c;stop-opacity:1;" offset="0.804688"/><stop style="stop-color:#5d5d5d;stop-opacity:1;" offset="0.8125"/><stop style="stop-color:#5e5e5e;stop-opacity:1;" offset="0.820312"/><stop style="stop-color:#5f5f5f;stop-opacity:1;" offset="0.828125"/><stop style="stop-color:#606060;stop-opacity:1;" offset="0.835938"/><stop style="stop-color:#616161;stop-opacity:1;" offset="0.84375"/><stop style="stop-color:#616161;stop-opacity:1;" offset="0.851562"/><stop style="stop-color:#626262;stop-opacity:1;" offset="0.859375"/><stop style="stop-color:#636363;stop-opacity:1;" offset="0.867188"/><stop style="stop-color:#646464;stop-opacity:1;" offset="0.875"/><stop style="stop-color:#656565;stop-opacity:1;" offset="0.882812"/><stop style="stop-color:#666666;stop-opacity:1;" offset="0.890625"/><stop style="stop-color:#676767;stop-opacity:1;" offset="0.898438"/><stop style="stop-color:#686868;stop-opacity:1;" offset="0.90625"/><stop style="stop-color:#696969;stop-opacity:1;" offset="0.914062"/><stop style="stop-color:#6a6a6a;stop-opacity:1;" offset="0.921875"/><stop style="stop-color:#6a6a6a;stop-opacity:1;" offset="0.929688"/><stop style="stop-color:#6b6b6b;stop-opacity:1;" offset="0.9375"/><stop style="stop-color:#6c6c6c;stop-opacity:1;" offset="0.945312"/><stop style="stop-color:#6d6d6d;stop-opacity:1;" offset="0.953125"/><stop style="stop-color:#6e6e6e;stop-opacity:1;" offset="0.960938"/><stop style="stop-color:#6f6f6f;stop-opacity:1;" offset="0.96875"/><stop style="stop-color:#707070;stop-opacity:1;" offset="0.976562"/><stop style="stop-color:#717171;stop-opacity:1;" offset="0.984375"/><stop style="stop-color:#727272;stop-opacity:1;" offset="0.992188"/><stop style="stop-color:#737373;stop-opacity:1;" offset="1"/></linearGradient><clipPath id="fca13ee869"><path d="M 0.0078125 0.566406 L 191.789062 0.566406 L 191.789062 95.816406 L 0.0078125 95.816406 Z M 0.0078125 0.566406 "/></clipPath><clipPath id="6be5e63e44"><path d="M 8.992188 0.566406 L 182.65625 0.566406 C 187.617188 0.566406 191.636719 4.585938 191.636719 9.546875 L 191.636719 86.832031 C 191.636719 91.792969 187.617188 95.816406 182.65625 95.816406 L 8.992188 95.816406 C 4.03125 95.816406 0.0078125 91.792969 0.0078125 86.832031 L 0.0078125 9.546875 C 0.0078125 4.585938 4.03125 0.566406 8.992188 0.566406 Z M 8.992188 0.566406 "/></clipPath></defs><g id="26262615ba"><rect x="0" width="192" y="0" height="95.999999" style="fill:url(#linear0);stroke:none;"/><g clip-rule="nonzero" clip-path="url(#fca13ee869)"><g clip-rule="nonzero" clip-path="url(#6be5e63e44)"><path style=" stroke:none;fill-rule:nonzero;fill:#ffffff;fill-opacity:1;" d="M 14.980469 -0.933594 L 19.472656 -0.933594 L 19.472656 2.0625 L 14.980469 2.0625 Z M 20.96875 -0.933594 L 25.460938 -0.933594 L 25.460938 2.0625 L 20.96875 2.0625 Z M 26.957031 -0.933594 L 31.449219 -0.933594 L 31.449219 2.0625 L 26.957031 2.0625 Z M 32.945312 -0.933594 L 37.4375 -0.933594 L 37.4375 2.0625 L 32.945312 2.0625 Z M 38.9375 -0.933594 L 43.429688 -0.933594 L 43.429688 2.0625 L 38.9375 2.0625 Z M 44.925781 -0.933594 L 49.417969 -0.933594 L 49.417969 2.0625 L 44.925781 2.0625 Z M 50.914062 -0.933594 L 55.40625 -0.933594 L 55.40625 2.0625 L 50.914062 2.0625 Z M 56.902344 -0.933594 L 61.394531 -0.933594 L 61.394531 2.0625 L 56.902344 2.0625 Z M 62.890625 -0.933594 L 67.382812 -0.933594 L 67.382812 2.0625 L 62.890625 2.0625 Z M 68.878906 -0.933594 L 73.371094 -0.933594 L 73.371094 2.0625 L 68.878906 2.0625 Z M 74.871094 -0.933594 L 79.363281 -0.933594 L 79.363281 2.0625 L 74.871094 2.0625 Z M 80.859375 -0.933594 L 85.351562 -0.933594 L 85.351562 2.0625 L 80.859375 2.0625 Z M 86.847656 -0.933594 L 91.339844 -0.933594 L 91.339844 2.0625 L 86.847656 2.0625 Z M 92.835938 -0.933594 L 97.328125 -0.933594 L 97.328125 2.0625 L 92.835938 2.0625 Z M 98.824219 -0.933594 L 103.316406 -0.933594 L 103.316406 2.0625 L 98.824219 2.0625 Z M 104.816406 -0.933594 L 109.304688 -0.933594 L 109.304688 2.0625 L 104.816406 2.0625 Z M 110.804688 -0.933594 L 115.296875 -0.933594 L 115.296875 2.0625 L 110.804688 2.0625 Z M 116.792969 -0.933594 L 121.285156 -0.933594 L 121.285156 2.0625 L 116.792969 2.0625 Z M 122.78125 -0.933594 L 127.273438 -0.933594 L 127.273438 2.0625 L 122.78125 2.0625 Z M 128.769531 -0.933594 L 133.261719 -0.933594 L 133.261719 2.0625 L 128.769531 2.0625 Z M 134.757812 -0.933594 L 139.25 -0.933594 L 139.25 2.0625 L 134.757812 2.0625 Z M 140.75 -0.933594 L 145.238281 -0.933594 L 145.238281 2.0625 L 140.75 2.0625 Z M 146.738281 -0.933594 L 151.230469 -0.933594 L 151.230469 2.0625 L 146.738281 2.0625 Z M 152.726562 -0.933594 L 157.21875 -0.933594 L 157.21875 2.0625 L 152.726562 2.0625 Z M 158.714844 -0.933594 L 163.207031 -0.933594 L 163.207031 2.0625 L 158.714844 2.0625 Z M 164.703125 -0.933594 L 169.195312 -0.933594 L 169.195312 2.0625 L 164.703125 2.0625 Z M 170.691406 -0.933594 L 175.183594 -0.933594 L 175.183594 2.0625 L 170.691406 2.0625 Z M 176.683594 -0.933594 L 181.171875 -0.933594 L 181.171875 2.0625 L 176.683594 2.0625 Z M 182.675781 -0.933594 C 184.476562 -0.929688 186.164062 -0.492188 187.734375 0.378906 L 186.28125 2.996094 C 185.160156 2.375 183.957031 2.066406 182.667969 2.0625 Z M 189.191406 1.355469 C 190.59375 2.476562 191.640625 3.863281 192.328125 5.511719 L 189.566406 6.667969 C 189.074219 5.488281 188.324219 4.496094 187.320312 3.695312 Z M 192.859375 7.160156 C 193.042969 7.941406 193.136719 8.738281 193.136719 9.546875 L 193.136719 12.011719 L 190.140625 12.011719 L 190.140625 9.546875 C 190.140625 8.96875 190.074219 8.398438 189.945312 7.839844 Z M 193.136719 13.507812 L 193.136719 18 L 190.140625 18 L 190.140625 13.507812 Z M 193.136719 19.5 L 193.136719 23.992188 L 190.140625 23.992188 L 190.140625 19.5 Z M 193.136719 25.488281 L 193.136719 29.980469 L 190.140625 29.980469 L 190.140625 25.488281 Z M 193.136719 31.476562 L 193.136719 35.96875 L 190.140625 35.96875 L 190.140625 31.476562 Z M 193.136719 37.464844 L 193.136719 41.957031 L 190.140625 41.957031 L 190.140625 37.464844 Z M 193.136719 43.453125 L 193.136719 47.945312 L 190.140625 47.945312 L 190.140625 43.453125 Z M 193.136719 49.445312 L 193.136719 53.933594 L 190.140625 53.933594 L 190.140625 49.445312 Z M 193.136719 55.433594 L 193.136719 59.925781 L 190.140625 59.925781 L 190.140625 55.433594 Z M 193.136719 61.421875 L 193.136719 65.914062 L 190.140625 65.914062 L 190.140625 61.421875 Z M 193.136719 67.410156 L 193.136719 71.902344 L 190.140625 71.902344 L 190.140625 67.410156 Z M 193.136719 73.398438 L 193.136719 77.890625 L 190.140625 77.890625 L 190.140625 73.398438 Z M 193.136719 79.386719 L 193.136719 83.878906 L 190.140625 83.878906 L 190.140625 79.386719 Z M 193.136719 85.378906 L 193.136719 86.832031 C 193.136719 88.042969 192.933594 89.214844 192.53125 90.34375 L 189.710938 89.339844 C 189.996094 88.535156 190.140625 87.699219 190.140625 86.832031 L 190.140625 85.378906 Z M 191.808594 91.9375 C 190.9375 93.5 189.742188 94.757812 188.226562 95.710938 L 186.632812 93.175781 C 187.71875 92.492188 188.570312 91.59375 189.195312 90.476562 Z M 186.664062 96.519531 C 185.382812 97.046875 184.046875 97.3125 182.65625 97.3125 L 181.664062 97.3125 L 181.664062 94.316406 L 182.65625 94.316406 C 183.652344 94.316406 184.605469 94.128906 185.515625 93.753906 Z M 180.164062 97.3125 L 175.671875 97.3125 L 175.671875 94.316406 L 180.164062 94.316406 Z M 174.175781 97.3125 L 169.683594 97.3125 L 169.683594 94.316406 L 174.175781 94.316406 Z M 168.1875 97.3125 L 163.695312 97.3125 L 163.695312 94.316406 L 168.1875 94.316406 Z M 162.199219 97.3125 L 157.707031 97.3125 L 157.707031 94.316406 L 162.199219 94.316406 Z M 156.210938 97.3125 L 151.71875 97.3125 L 151.71875 94.316406 L 156.210938 94.316406 Z M 150.21875 97.3125 L 145.730469 97.3125 L 145.730469 94.316406 L 150.21875 94.316406 Z M 144.230469 97.3125 L 139.738281 97.3125 L 139.738281 94.316406 L 144.230469 94.316406 Z M 138.242188 97.3125 L 133.75 97.3125 L 133.75 94.316406 L 138.242188 94.316406 Z M 132.253906 97.3125 L 127.761719 97.3125 L 127.761719 94.316406 L 132.253906 94.316406 Z M 126.265625 97.3125 L 121.773438 97.3125 L 121.773438 94.316406 L 126.265625 94.316406 Z M 120.277344 97.3125 L 115.785156 97.3125 L 115.785156 94.316406 L 120.277344 94.316406 Z M 114.285156 97.3125 L 109.796875 97.3125 L 109.796875 94.316406 L 114.285156 94.316406 Z M 108.296875 97.3125 L 103.804688 97.3125 L 103.804688 94.316406 L 108.296875 94.316406 Z M 102.308594 97.3125 L 97.816406 97.3125 L 97.816406 94.316406 L 102.308594 94.316406 Z M 96.320312 97.3125 L 91.828125 97.3125 L 91.828125 94.316406 L 96.320312 94.316406 Z M 90.332031 97.3125 L 85.839844 97.3125 L 85.839844 94.316406 L 90.332031 94.316406 Z M 84.34375 97.3125 L 79.851562 97.3125 L 79.851562 94.316406 L 84.34375 94.316406 Z M 78.351562 97.3125 L 73.859375 97.3125 L 73.859375 94.316406 L 78.351562 94.316406 Z M 72.363281 97.3125 L 67.871094 97.3125 L 67.871094 94.316406 L 72.363281 94.316406 Z M 66.375 97.3125 L 61.882812 97.3125 L 61.882812 94.316406 L 66.375 94.316406 Z M 60.386719 97.3125 L 55.894531 97.3125 L 55.894531 94.316406 L 60.386719 94.316406 Z M 54.398438 97.3125 L 49.90625 97.3125 L 49.90625 94.316406 L 54.398438 94.316406 Z M 48.410156 97.3125 L 43.917969 97.3125 L 43.917969 94.316406 L 48.410156 94.316406 Z M 42.417969 97.3125 L 37.925781 97.3125 L 37.925781 94.316406 L 42.417969 94.316406 Z M 36.429688 97.3125 L 31.9375 97.3125 L 31.9375 94.316406 L 36.429688 94.316406 Z M 30.441406 97.3125 L 25.949219 97.3125 L 25.949219 94.316406 L 30.441406 94.316406 Z M 24.453125 97.3125 L 19.960938 97.3125 L 19.960938 94.316406 L 24.453125 94.316406 Z M 18.464844 97.3125 L 13.972656 97.3125 L 13.972656 94.316406 L 18.464844 94.316406 Z M 12.472656 97.3125 L 8.992188 97.3125 C 8.585938 97.3125 8.183594 97.289062 7.785156 97.242188 L 8.125 94.269531 C 8.410156 94.300781 8.699219 94.316406 8.992188 94.316406 L 12.472656 94.316406 Z M 6.0625 96.898438 C 4.351562 96.402344 2.859375 95.519531 1.59375 94.253906 L 3.707031 92.132812 C 4.613281 93.039062 5.675781 93.667969 6.898438 94.023438 Z M 0.460938 92.921875 C -0.582031 91.464844 -1.207031 89.847656 -1.414062 88.070312 L 1.558594 87.722656 C 1.707031 88.988281 2.152344 90.140625 2.898438 91.179688 Z M -1.488281 86.371094 L -1.488281 81.878906 L 1.507812 81.878906 L 1.507812 86.371094 Z M -1.488281 80.382812 L -1.488281 75.890625 L 1.507812 75.890625 L 1.507812 80.382812 Z M -1.488281 74.394531 L -1.488281 69.902344 L 1.507812 69.902344 L 1.507812 74.394531 Z M -1.488281 68.402344 L -1.488281 63.910156 L 1.507812 63.910156 L 1.507812 68.402344 Z M -1.488281 62.414062 L -1.488281 57.921875 L 1.507812 57.921875 L 1.507812 62.414062 Z M -1.488281 56.425781 L -1.488281 51.933594 L 1.507812 51.933594 L 1.507812 56.425781 Z M -1.488281 50.4375 L -1.488281 45.945312 L 1.507812 45.945312 L 1.507812 50.4375 Z M -1.488281 44.449219 L -1.488281 39.957031 L 1.507812 39.957031 L 1.507812 44.449219 Z M -1.488281 38.457031 L -1.488281 33.96875 L 1.507812 33.96875 L 1.507812 38.457031 Z M -1.488281 32.46875 L -1.488281 27.976562 L 1.507812 27.976562 L 1.507812 32.46875 Z M -1.488281 26.480469 L -1.488281 21.988281 L 1.507812 21.988281 L 1.507812 26.480469 Z M -1.488281 20.492188 L -1.488281 16 L 1.507812 16 L 1.507812 20.492188 Z M -1.488281 14.503906 L -1.488281 10.011719 L 1.507812 10.011719 L 1.507812 14.503906 Z M -1.417969 8.308594 C -1.207031 6.535156 -0.582031 4.917969 0.460938 3.460938 L 2.898438 5.199219 C 2.152344 6.242188 1.707031 7.394531 1.558594 8.660156 Z M 1.589844 2.128906 C 2.859375 0.863281 4.351562 -0.0195312 6.0625 -0.515625 L 6.898438 2.359375 C 5.675781 2.714844 4.613281 3.34375 3.707031 4.246094 Z M 7.78125 -0.863281 C 8.183594 -0.910156 8.585938 -0.933594 8.992188 -0.933594 L 13.484375 -0.933594 L 13.484375 2.0625 L 8.992188 2.0625 C 8.699219 2.0625 8.410156 2.078125 8.125 2.113281 Z M 7.78125 -0.863281 "/></g></g></g></svg>